<?xml version="1.0" encoding="UTF-8"?>
<svg width="160px" height="161px" viewBox="0 0 160 161" version="1.1" xmlns="http://www.w3.org/2000/svg" xmlns:xlink="http://www.w3.org/1999/xlink">
    <!-- Generator: Sketch 46.1 (44463) - http://www.bohemiancoding.com/sketch -->
    <title>20gb</title>
    <desc>Created with Sketch.</desc>
    <defs>
        <linearGradient x1="-27.6820817%" y1="-28.768878%" x2="113.337402%" y2="113.865974%" id="linearGradient-1">
            <stop stop-color="#33CC33" offset="0%"></stop>
            <stop stop-color="#2CC54F" offset="6.05634372%"></stop>
            <stop stop-color="#0099FF" offset="43.8001284%"></stop>
            <stop stop-color="#993399" offset="100%"></stop>
        </linearGradient>
    </defs>
    <g id="landing" stroke="none" stroke-width="1" fill="none" fill-rule="evenodd">
        <g id="Desktop-HD" transform="translate(-590.000000, -773.000000)">
            <g id="20gb" transform="translate(590.000000, 773.000000)">
                <path d="M35.1784679,32 L33.8021007,32 L33.8021007,23.1470705 C33.8021007,22.4107387 33.8247567,21.714066 33.8700694,21.0570315 C33.7511235,21.1759774 33.6180194,21.3005855 33.470753,21.4308596 C33.3234867,21.5611337 32.64947,22.1133743 31.4486828,23.0875979 L30.7010265,22.1190432 L33.9890148,19.5787112 L35.1784679,19.5787112 L35.1784679,32 Z M56.9369635,32 L56.9369635,25.9422853 C56.9369635,25.2002894 56.7783713,24.6438008 56.4611822,24.2728029 C56.1439932,23.901805 55.6512247,23.7163088 54.982862,23.7163088 C54.1049279,23.7163088 53.4563992,23.968357 53.0372565,24.4724611 C52.6181138,24.9765652 52.4085456,25.752534 52.4085456,26.8003907 L52.4085456,32 L50.9981941,32 L50.9981941,25.9422853 C50.9981941,25.2002894 50.8396019,24.6438008 50.5224128,24.2728029 C50.2052238,23.901805 49.7096233,23.7163088 49.0355965,23.7163088 C48.1519983,23.7163088 47.5048857,23.981101 47.0942391,24.5106935 C46.6835925,25.040286 46.4782723,25.9082949 46.4782723,27.1147462 L46.4782723,32 L45.0679208,32 L45.0679208,22.6882815 L46.2148934,22.6882815 L46.4442879,23.9626955 L46.5122567,23.9626955 C46.7784689,23.5095682 47.1537093,23.1555679 47.6379891,22.9006838 C48.1222688,22.6457997 48.6645974,22.5183596 49.264991,22.5183596 C50.7206623,22.5183596 51.6722153,23.0451121 52.1196784,24.098633 L52.1876472,24.098633 C52.4651876,23.6115212 52.867332,23.2263688 53.3940925,22.9431643 C53.9208529,22.6599597 54.5212375,22.5183596 55.1952643,22.5183596 C56.2487852,22.5183596 57.037498,22.7888159 57.5614263,23.3297365 C58.0853547,23.8706572 58.347315,24.7358341 58.347315,25.9252931 L58.347315,32 L56.9369635,32 Z M69.2902835,27.3356446 C69.2902835,28.8536209 68.9079631,30.0388141 68.1433109,30.8912598 C67.3786586,31.7437054 66.3223216,32.1699219 64.974268,32.1699219 C64.1416467,32.1699219 63.4024939,31.9745137 62.7567876,31.5836914 C62.1110812,31.1928692 61.6126487,30.6321326 61.2614751,29.9014649 C60.9103015,29.1707972 60.7347173,28.3155323 60.7347173,27.3356446 C60.7347173,25.8176683 61.1142057,24.6353071 61.8731938,23.7885256 C62.632182,22.941744 63.6856871,22.5183596 65.0337406,22.5183596 C66.3364815,22.5183596 67.3715785,22.951656 68.1390628,23.8182619 C68.9065471,24.6848678 69.2902835,25.857317 69.2902835,27.3356446 Z M62.1960454,27.3356446 C62.1960454,28.5251037 62.4339336,29.4313446 62.9097172,30.0543946 C63.3855009,30.6774446 64.0850056,30.9889649 65.0082524,30.9889649 C65.9314991,30.9889649 66.6324199,30.6788606 67.1110355,30.0586426 C67.5896512,29.4384247 67.8289554,28.5307678 67.8289554,27.3356446 C67.8289554,26.1518497 67.5896512,25.2526888 67.1110355,24.6381349 C66.6324199,24.0235811 65.9258351,23.7163088 64.9912602,23.7163088 C64.0680134,23.7163088 63.3713407,24.0193331 62.9012212,24.6253908 C62.4311016,25.2314485 62.1960454,26.1348574 62.1960454,27.3356446 Z M78.1347169,32 L78.1347169,25.9762697 C78.1347169,25.2172815 77.9619647,24.6508809 77.6164552,24.277051 C77.2709457,23.903221 76.7300331,23.7163088 75.9937013,23.7163088 C75.0194777,23.7163088 74.305813,23.979685 73.8526858,24.5064455 C73.3995585,25.0332059 73.1729983,25.9026308 73.1729983,27.1147462 L73.1729983,32 L71.7626467,32 L71.7626467,22.6882815 L72.9096194,22.6882815 L73.1390139,23.9626955 L73.2069826,23.9626955 C73.4958513,23.5039041 73.9008277,23.1484878 74.421924,22.8964357 C74.9430204,22.6443837 75.523581,22.5183596 76.1636232,22.5183596 C77.2851132,22.5183596 78.12905,22.7888159 78.6954591,23.3297365 C79.2618682,23.8706572 79.5450684,24.7358341 79.5450684,25.9252931 L79.5450684,32 L78.1347169,32 Z M85.4498535,31.0059571 C85.6990735,31.0059571 85.9397937,30.987549 86.1720214,30.9507324 C86.4042491,30.9139159 86.5883293,30.8756838 86.7242675,30.8360352 L86.7242675,31.9150391 C86.5713371,31.9886722 86.3461928,32.0495603 86.0488281,32.0977051 C85.7514633,32.1458498 85.483839,32.1699219 85.2459472,32.1699219 C83.4447664,32.1699219 82.5441895,31.2212009 82.5441895,29.3237305 L82.5441895,23.7842775 L81.2103028,23.7842775 L81.2103028,23.10459 L82.5441895,22.5183596 L83.138916,20.5302737 L83.954541,20.5302737 L83.954541,22.6882815 L86.6562988,22.6882815 L86.6562988,23.7842775 L83.954541,23.7842775 L83.954541,29.2642579 C83.954541,29.8250029 84.0876451,30.2554673 84.3538574,30.5556641 C84.6200697,30.8558609 84.985398,31.0059571 85.4498535,31.0059571 Z M94.9569822,32 L94.9569822,25.9762697 C94.9569822,25.2172815 94.78423,24.6508809 94.4387205,24.277051 C94.0932109,23.903221 93.5522984,23.7163088 92.8159666,23.7163088 C91.8360789,23.7163088 91.1209982,23.982517 90.670703,24.5149416 C90.2204078,25.0473661 89.9952635,25.919623 89.9952635,27.1317384 L89.9952635,32 L88.584912,32 L88.584912,18.7800784 L89.9952635,18.7800784 L89.9952635,22.7817385 C89.9952635,23.2631862 89.9726075,23.6624986 89.9272948,23.9796877 L90.0122557,23.9796877 C90.2897962,23.5322245 90.6848606,23.1796402 91.1974608,22.921924 C91.710061,22.6642079 92.2948696,22.5353518 92.9519041,22.5353518 C94.0903863,22.5353518 94.9442352,22.805808 95.5134763,23.3467287 C96.0827174,23.8876494 96.3673337,24.7471622 96.3673337,25.9252931 L96.3673337,32 L94.9569822,32 Z M105.441162,32 L103.996826,32 L103.996826,19.5787112 L110.921142,19.5787112 L110.921142,20.8616213 L105.441162,20.8616213 L105.441162,25.4070314 L110.589794,25.4070314 L110.589794,26.6899415 L105.441162,26.6899415 L105.441162,32 Z M117.012841,22.5183596 C117.42632,22.5183596 117.797312,22.5523436 118.125829,22.6203127 L117.930419,23.9287111 C117.545261,23.8437498 117.205421,23.8012697 116.910888,23.8012697 C116.157564,23.8012697 115.513283,24.107126 114.978027,24.7188478 C114.44277,25.3305696 114.175146,26.0923784 114.175146,27.004297 L114.175146,32 L112.764794,32 L112.764794,22.6882815 L113.928759,22.6882815 L114.090185,24.4129884 L114.158154,24.4129884 C114.503663,23.8069307 114.919968,23.3396503 115.407079,23.011133 C115.894191,22.6826157 116.42944,22.5183596 117.012841,22.5183596 Z M123.80122,32.1699219 C122.424846,32.1699219 121.338773,31.7507854 120.542968,30.9125 C119.747163,30.0742146 119.349267,28.9102614 119.349267,27.4206056 C119.349267,25.9196215 119.718843,24.7273483 120.458007,23.8437502 C121.197171,22.960152 122.189788,22.5183596 123.435888,22.5183596 C124.60269,22.5183596 125.525923,22.902096 126.205614,23.6695803 C126.885305,24.4370646 127.225146,25.4495056 127.225146,26.7069337 L127.225146,27.5990235 L120.810595,27.5990235 C120.838915,28.692193 121.115036,29.5219699 121.638964,30.0883789 C122.162892,30.654788 122.900629,30.9379883 123.852196,30.9379883 C124.85474,30.9379883 125.845941,30.7284201 126.825829,30.3092774 L126.825829,31.5666992 C126.327389,31.7819347 125.855861,31.9362788 125.41123,32.0297363 C124.966598,32.1231938 124.429934,32.1699219 123.80122,32.1699219 Z M123.418896,23.6993166 C122.671236,23.6993166 122.075099,23.9428688 121.630468,24.4299806 C121.185837,24.9170924 120.923877,25.5911091 120.844579,26.4520509 L125.712841,26.4520509 C125.712841,25.5627887 125.514601,24.881692 125.118114,24.4087404 C124.721628,23.9357888 124.155227,23.6993166 123.418896,23.6993166 Z M133.563231,32.1699219 C132.186857,32.1699219 131.100784,31.7507854 130.304979,30.9125 C129.509175,30.0742146 129.111278,28.9102614 129.111278,27.4206056 C129.111278,25.9196215 129.480855,24.7273483 130.220019,23.8437502 C130.959182,22.960152 131.951799,22.5183596 133.197899,22.5183596 C134.364702,22.5183596 135.287935,22.902096 135.967626,23.6695803 C136.647317,24.4370646 136.987157,25.4495056 136.987157,26.7069337 L136.987157,27.5990235 L130.572606,27.5990235 C130.600927,28.692193 130.877047,29.5219699 131.400976,30.0883789 C131.924904,30.654788 132.662641,30.9379883 133.614208,30.9379883 C134.616752,30.9379883 135.607953,30.7284201 136.587841,30.3092774 L136.587841,31.5666992 C136.089401,31.7819347 135.617872,31.9362788 135.173241,32.0297363 C134.72861,32.1231938 134.191945,32.1699219 133.563231,32.1699219 Z M133.180907,23.6993166 C132.433247,23.6993166 131.837111,23.9428688 131.392479,24.4299806 C130.947848,24.9170924 130.685888,25.5911091 130.606591,26.4520509 L135.474852,26.4520509 C135.474852,25.5627887 135.276612,24.881692 134.880126,24.4087404 C134.483639,23.9357888 133.917239,23.6993166 133.180907,23.6993166 Z M37.1368174,53 L28.9720715,53 L28.9720715,51.7850586 L32.2430675,48.4970704 C33.2399475,47.4888623 33.8969722,46.7695335 34.2141612,46.3390626 C34.5313503,45.9085918 34.7692386,45.4894553 34.9278331,45.0816408 C35.0864276,44.6738263 35.1657237,44.2348658 35.1657237,43.7647463 C35.1657237,43.1020477 34.9646515,42.5767112 34.5625011,42.1887209 C34.1603506,41.8007307 33.6024461,41.6067385 32.8887706,41.6067385 C32.3733384,41.6067385 31.8848179,41.6916986 31.4231945,41.8616213 C30.9615711,42.0315441 30.4475626,42.3402324 29.8811535,42.7876955 L29.1334973,41.827637 C30.2776436,40.8760697 31.5237249,40.4002932 32.8717785,40.4002932 C34.0385811,40.4002932 34.9533181,40.6990695 35.6160167,41.2966311 C36.2787153,41.8941927 36.6100596,42.6970655 36.6100596,43.7052736 C36.6100596,44.4925822 36.3891634,45.271383 35.9473643,46.0416994 C35.5055652,46.8120157 34.6786204,47.7862247 33.466505,48.9643556 L30.7477551,51.6236328 L30.7477551,51.6916016 L37.1368174,51.6916016 L37.1368174,53 Z M47.1537117,46.7723634 C47.1537117,48.9190538 46.8152874,50.5219674 46.1384286,51.5811524 C45.4615697,52.6403373 44.4264727,53.1699219 43.0331064,53.1699219 C41.696381,53.1699219 40.6796919,52.6275933 39.9830088,51.54292 C39.2863256,50.4582466 38.9379893,48.868077 38.9379893,46.7723634 C38.9379893,44.6086808 39.2749976,43.0029351 39.9490244,41.9550784 C40.6230512,40.9072216 41.6510682,40.3833011 43.0331064,40.3833011 C44.3811599,40.3833011 45.404929,40.9298776 46.1044442,42.0230471 C46.8039594,43.1162166 47.1537117,44.6993062 47.1537117,46.7723634 Z M40.365333,46.7723634 C40.365333,48.5792083 40.5777332,49.8946737 41.00254,50.7187989 C41.4273468,51.5429241 42.1041955,51.9549805 43.0331064,51.9549805 C43.9733454,51.9549805 44.6544421,51.5372601 45.0764169,50.7018067 C45.4983916,49.8663533 45.7093758,48.556552 45.7093758,46.7723634 C45.7093758,44.9881748 45.4983916,43.6812055 45.0764169,42.8514162 C44.6544421,42.021627 43.9733454,41.6067385 43.0331064,41.6067385 C42.1041955,41.6067385 41.4273468,42.0159629 41.00254,42.8344241 C40.5777332,43.6528852 40.365333,44.9655185 40.365333,46.7723634 Z M59.710938,46.4919923 L63.9334965,46.4919923 L63.9334965,52.5327149 C63.276462,52.7422862 62.6081093,52.9008784 61.9284184,53.0084961 C61.2487276,53.1161138 60.4614308,53.1699219 59.5665044,53.1699219 C57.6860263,53.1699219 56.2218808,52.6106013 55.1740241,51.4919434 C54.1261673,50.3732855 53.6022467,48.8057719 53.6022467,46.7893556 C53.6022467,45.4979429 53.861375,44.3665578 54.3796393,43.3951662 C54.8979036,42.4237747 55.6441364,41.6817899 56.61836,41.1691897 C57.5925836,40.6565895 58.7338807,40.4002932 60.0422857,40.4002932 C61.3676829,40.4002932 62.6024361,40.6438455 63.7465825,41.1309573 L63.1858403,42.4053713 C62.0643503,41.9295877 60.9853572,41.6916995 59.9488286,41.6916995 C58.4365164,41.6916995 57.2555712,42.1419879 56.4059576,43.0425783 C55.556344,43.9431688 55.1315436,45.192082 55.1315436,46.7893556 C55.1315436,48.4659265 55.540768,49.7374957 56.3592291,50.6041016 C57.1776902,51.4707075 58.3798754,51.9040039 59.9658208,51.9040039 C60.8267626,51.9040039 61.6678675,51.8048838 62.4891606,51.6066407 L62.4891606,47.7833986 L59.710938,47.7833986 L59.710938,46.4919923 Z M66.9156254,40.5787112 L70.424512,40.5787112 C72.0727624,40.5787112 73.2650356,40.8250955 74.0013674,41.3178713 C74.7376992,41.8106472 75.1058596,42.589448 75.1058596,43.6542971 C75.1058596,44.3906289 74.9005394,44.9980935 74.4898928,45.4767091 C74.0792462,45.9553248 73.4802776,46.2654291 72.692969,46.4070314 L72.692969,46.4919923 C74.5791112,46.8148455 75.5221681,47.8060465 75.5221681,49.4656251 C75.5221681,50.5757869 75.1469278,51.4423797 74.3964357,52.0654297 C73.6459437,52.6884797 72.5966867,53 71.2486331,53 L66.9156254,53 L66.9156254,40.5787112 Z M68.3599613,45.8972658 L70.7388675,45.8972658 C71.7584038,45.8972658 72.4918925,45.7372576 72.9393557,45.4172365 C73.3868189,45.0972154 73.6105471,44.5577188 73.6105471,43.7987307 C73.6105471,43.1020475 73.3613308,42.599367 72.8628909,42.2906741 C72.3644509,41.9819811 71.5714901,41.827637 70.4839847,41.827637 L68.3599613,41.827637 L68.3599613,45.8972658 Z M68.3599613,47.1207033 L68.3599613,51.7680664 L70.9512698,51.7680664 C71.9538139,51.7680664 72.7085426,51.5740742 73.2154787,51.186084 C73.7224149,50.7980938 73.9758791,50.1906292 73.9758791,49.363672 C73.9758791,48.5933556 73.7167509,48.026955 73.1984866,47.6644532 C72.6802223,47.3019514 71.8915095,47.1207033 70.8323245,47.1207033 L68.3599613,47.1207033 Z M86.6945312,44.7842775 L84.3241211,44.7842775 L84.3241211,53 L82.9137695,53 L82.9137695,44.7842775 L81.2485352,44.7842775 L81.2485352,44.1470705 L82.9137695,43.6373049 L82.9137695,43.1190432 C82.9137695,40.8307505 83.9134666,39.6866214 85.9128906,39.6866214 C86.4056665,39.6866214 86.983395,39.7857415 87.6460937,39.9839847 L87.2807616,41.1139651 C86.7370089,40.9383783 86.2725605,40.8505862 85.8874023,40.8505862 C85.3549778,40.8505862 84.9613294,41.0275864 84.7064453,41.3815921 C84.4515612,41.7355977 84.3241211,42.3034143 84.3241211,43.0850588 L84.3241211,43.6882815 L86.6945312,43.6882815 L86.6945312,44.7842775 Z M96.4310544,48.3356446 C96.4310544,49.8536209 96.048734,51.0388141 95.2840818,51.8912598 C94.5194295,52.7437054 93.4630925,53.1699219 92.1150389,53.1699219 C91.2824175,53.1699219 90.5432648,52.9745137 89.8975585,52.5836914 C89.2518521,52.1928692 88.7534196,51.6321326 88.402246,50.9014649 C88.0510724,50.1707972 87.8754882,49.3155323 87.8754882,48.3356446 C87.8754882,46.8176683 88.2549766,45.6353071 89.0139647,44.7885256 C89.7729529,43.941744 90.8264579,43.5183596 92.1745115,43.5183596 C93.4772524,43.5183596 94.5123494,43.951656 95.2798337,44.8182619 C96.047318,45.6848678 96.4310544,46.857317 96.4310544,48.3356446 Z M89.3368163,48.3356446 C89.3368163,49.5251037 89.5747045,50.4313446 90.0504881,51.0543946 C90.5262718,51.6774446 91.2257765,51.9889649 92.1490232,51.9889649 C93.07227,51.9889649 93.7731907,51.6788606 94.2518064,51.0586426 C94.7304221,50.4384247 94.9697263,49.5307678 94.9697263,48.3356446 C94.9697263,47.1518497 94.7304221,46.2526888 94.2518064,45.6381349 C93.7731907,45.0235811 93.066606,44.7163088 92.1320311,44.7163088 C91.2087843,44.7163088 90.5121116,45.0193331 90.041992,45.6253908 C89.5718725,46.2314485 89.3368163,47.1348574 89.3368163,48.3356446 Z M103.151464,43.5183596 C103.564943,43.5183596 103.935935,43.5523436 104.264453,43.6203127 L104.069043,44.9287111 C103.683884,44.8437498 103.344044,44.8012697 103.049511,44.8012697 C102.296187,44.8012697 101.651907,45.107126 101.11665,45.7188478 C100.581393,46.3305696 100.313769,47.0923784 100.313769,48.004297 L100.313769,53 L98.9034176,53 L98.9034176,43.6882815 L100.067382,43.6882815 L100.228808,45.4129884 L100.296777,45.4129884 C100.642287,44.8069307 101.058591,44.3396503 101.545703,44.011133 C102.032815,43.6826157 102.568063,43.5183596 103.151464,43.5183596 Z M117.832714,49.185254 C117.832714,49.9555703 117.54385,50.591355 116.966113,51.092627 C116.388375,51.593899 115.581254,51.9096673 114.544726,52.0399414 L114.544726,54.0110351 L113.44873,54.0110351 L113.44873,52.1164063 C112.814352,52.1164063 112.199807,52.0668462 111.605078,51.9677246 C111.010348,51.868603 110.523243,51.7312509 110.143749,51.5556641 L110.143749,50.2302735 C110.613869,50.4398449 111.156197,50.611181 111.770751,50.7442872 C112.385305,50.8773933 112.944626,50.9439454 113.44873,50.9439454 L113.44873,47.2056642 C112.287591,46.8374983 111.47339,46.4098659 111.006103,45.9227541 C110.538815,45.4356423 110.305175,44.8069376 110.305175,44.0366213 C110.305175,43.2946254 110.592623,42.6857448 111.167529,42.2099612 C111.742434,41.7341776 112.502827,41.4453133 113.44873,41.3433596 L113.44873,39.7970706 L114.544726,39.7970706 L114.544726,41.3263674 C115.586919,41.3546879 116.59228,41.5642561 117.560839,41.9550784 L117.119042,43.0680666 C116.275093,42.7338853 115.416996,42.5356451 114.544726,42.4733401 L114.544726,46.1606447 C115.433988,46.4438492 116.099509,46.7199695 116.541308,46.9890138 C116.983107,47.2580581 117.308787,47.5667464 117.518359,47.915088 C117.72793,48.2634296 117.832714,48.686814 117.832714,49.185254 Z M116.388378,49.2957032 C116.388378,48.8878887 116.262354,48.5579603 116.010302,48.3059083 C115.75825,48.0538563 115.269729,47.803224 114.544726,47.554004 L114.544726,50.8589844 C115.773834,50.6890617 116.388378,50.1679732 116.388378,49.2957032 Z M111.741015,44.0196291 C111.741015,44.4501 111.868455,44.7956043 112.123339,45.0561525 C112.378223,45.3167007 112.820016,45.5630849 113.44873,45.7953127 L113.44873,42.5073244 C112.887985,42.5979499 112.463184,42.7749501 112.174316,43.0383303 C111.885447,43.3017105 111.741015,43.6288068 111.741015,44.0196291 Z M127.994042,53 L119.829296,53 L119.829296,51.7850586 L123.100292,48.4970704 C124.097172,47.4888623 124.754197,46.7695335 125.071386,46.3390626 C125.388575,45.9085918 125.626463,45.4894553 125.785058,45.0816408 C125.943652,44.6738263 126.022948,44.2348658 126.022948,43.7647463 C126.022948,43.1020477 125.821876,42.5767112 125.419726,42.1887209 C125.017575,41.8007307 124.459671,41.6067385 123.745995,41.6067385 C123.230563,41.6067385 122.742042,41.6916986 122.280419,41.8616213 C121.818796,42.0315441 121.304787,42.3402324 120.738378,42.7876955 L119.990722,41.827637 C121.134868,40.8760697 122.380949,40.4002932 123.729003,40.4002932 C124.895806,40.4002932 125.810543,40.6990695 126.473241,41.2966311 C127.13594,41.8941927 127.467284,42.6970655 127.467284,43.7052736 C127.467284,44.4925822 127.246388,45.271383 126.804589,46.0416994 C126.36279,46.8120157 125.535845,47.7862247 124.32373,48.9643556 L121.60498,51.6236328 L121.60498,51.6916016 L127.994042,51.6916016 L127.994042,53 Z M138.010936,46.7723634 C138.010936,48.9190538 137.672512,50.5219674 136.995653,51.5811524 C136.318794,52.6403373 135.283697,53.1699219 133.890331,53.1699219 C132.553606,53.1699219 131.536916,52.6275933 130.840233,51.54292 C130.14355,50.4582466 129.795214,48.868077 129.795214,46.7723634 C129.795214,44.6086808 130.132222,43.0029351 130.806249,41.9550784 C131.480276,40.9072216 132.508293,40.3833011 133.890331,40.3833011 C135.238385,40.3833011 136.262154,40.9298776 136.961669,42.0230471 C137.661184,43.1162166 138.010936,44.6993062 138.010936,46.7723634 Z M131.222558,46.7723634 C131.222558,48.5792083 131.434958,49.8946737 131.859765,50.7187989 C132.284571,51.5429241 132.96142,51.9549805 133.890331,51.9549805 C134.83057,51.9549805 135.511667,51.5372601 135.933641,50.7018067 C136.355616,49.8663533 136.5666,48.556552 136.5666,46.7723634 C136.5666,44.9881748 136.355616,43.6812055 135.933641,42.8514162 C135.511667,42.021627 134.83057,41.6067385 133.890331,41.6067385 C132.96142,41.6067385 132.284571,42.0159629 131.859765,42.8344241 C131.434958,43.6528852 131.222558,44.9655185 131.222558,46.7723634 Z" id="1-month-Free-20-GB-f" fill="#4A4A4A"></path>
                <path d="M35.8319989,126 L35.8319989,122.5184 L19.1855984,122.5184 L32.7311988,105.219199 C34.8527989,102.499199 35.8319989,100.486399 35.8319989,97.3855992 C35.8319989,91.020799 31.5343988,86.9407989 25.1695986,86.9407989 C18.6959984,86.9407989 14.5071983,91.347199 14.5071983,97.4399992 L18.4239984,97.4399992 C18.4239984,92.4351991 21.5791985,90.422399 25.1695986,90.422399 C29.4127987,90.422399 31.9151988,93.1967991 31.9151988,97.3855992 C31.9151988,99.5071993 31.2079988,101.193599 29.7391987,103.097599 L14.4527983,122.5184 L14.4527983,126 L35.8319989,126 Z M63.9567997,115.664 C63.9567997,122.0832 59.3871996,126.3264 53.3487994,126.3264 C47.3103992,126.3264 42.7407991,122.0832 42.7407991,115.664 L42.7407991,97.6031992 C42.7407991,91.183999 47.3103992,86.9407989 53.3487994,86.9407989 C59.3871996,86.9407989 63.9567997,91.183999 63.9567997,97.6031992 L63.9567997,115.664 Z M60.0399996,115.4464 L60.0399996,97.8207992 C60.0399996,93.5775991 57.6463995,90.422399 53.3487994,90.422399 C49.0511993,90.422399 46.6575992,93.5775991 46.6575992,97.8207992 L46.6575992,115.4464 C46.6575992,119.6896 49.0511993,122.8448 53.3487994,122.8448 C57.6463995,122.8448 60.0399996,119.6896 60.0399996,115.4464 Z M112.427201,111.856 L112.427201,105.708799 L98.7728007,105.708799 L98.7728007,109.3536 L108.292801,109.3536 L108.292801,112.2912 C108.292801,115.2832 107.694401,117.4048 106.116801,119.3088 C104.321601,121.4848 101.601601,122.6272 98.7728007,122.6272 C96.2160006,122.6272 93.7680005,121.648 92.0816005,119.9072 C89.6336004,117.4048 89.3616004,114.7392 89.3616004,106.633599 C89.3616004,98.5279992 89.6336004,95.9167992 92.0816005,93.4143991 C93.7680005,91.673599 96.2160006,90.639999 98.7728007,90.639999 C103.614401,90.639999 107.096001,93.6319991 108.184001,98.5279992 L112.318401,98.5279992 C111.176001,91.727999 106.171201,86.9407989 98.7728007,86.9407989 C94.9104006,86.9407989 91.4832005,88.3551989 88.8720004,90.966399 C85.2272003,94.6111991 85.2272003,98.4191992 85.2272003,106.633599 C85.2272003,114.848 85.2272003,118.656 88.8720004,122.3008 C91.4832005,124.912 94.9648006,126.3264 98.7728007,126.3264 C102.744001,126.3264 106.388801,124.8032 109.108801,121.8656 C111.502401,119.3088 112.427201,116.3168 112.427201,111.856 Z M148.657602,115.2832 C148.657602,122.3008 143.979202,126 137.124802,126 L122.056001,126 L122.056001,87.2671989 L136.635202,87.2671989 C143.380802,87.2671989 148.059202,91.129599 148.059202,97.6031992 C148.059202,101.683199 145.611202,104.892799 142.347202,106.089599 C146.046402,107.449599 148.657602,110.6592 148.657602,115.2832 Z M144.523202,115.1744 C144.523202,110.8224 141.531202,108.102399 136.744002,108.102399 L126.190401,108.102399 L126.190401,122.3008 L136.744002,122.3008 C141.531202,122.3008 144.523202,119.5264 144.523202,115.1744 Z M143.924802,97.6575992 C143.924802,93.0335991 140.606402,90.966399 136.308802,90.966399 L126.190401,90.966399 L126.190401,104.403199 L136.308802,104.403199 C140.606402,104.403199 143.924802,102.281599 143.924802,97.6575992 Z" id="20-GB" fill="#4A4A4A"></path>
                <rect id="Rectangle-7" stroke="url(#linearGradient-1)" stroke-width="2" x="1" y="1" width="158" height="159" rx="10"></rect>
            </g>
        </g>
    </g>
</svg>